<?xml version="1.0" encoding="UTF-8"?>
<svg width="85.12px" height="28px" viewBox="0 0 85.12 28" version="1.1" xmlns="http://www.w3.org/2000/svg" xmlns:xlink="http://www.w3.org/1999/xlink">
    <title>USC Logo</title>
    <g id="Symbols" stroke="none" stroke-width="1" fill="none" fill-rule="evenodd">
        <g id="Header-MVP---Course-list" transform="translate(-32.000000, -10.000000)" fill="#FFFFFF">
            <g id="USC-Logo" transform="translate(32.000000, 10.000000)">
                <path d="M28.6110347,6.2754575 C28.6110347,5.17423244 28.3515889,4.65565265 27.5091871,4.65565265 L26.0188083,4.65565265 C25.8253395,4.65565265 25.76,4.5909497 25.76,4.36433001 L25.76,3.61913053 C25.76,3.42502168 25.8253395,3.36 26.0835104,3.36 C26.4076582,3.36 27.9624203,3.45721379 31.072582,3.45721379 C33.7945312,3.45721379 35.3492933,3.36 35.7378245,3.36 C35.9328869,3.36 35.9972702,3.42502168 35.9972702,3.58630095 L35.9972702,4.39652212 C35.9972702,4.5909497 35.9328869,4.65565265 35.7378245,4.65565265 L34.3774873,4.65565265 C33.4056813,4.65565265 32.8224065,5.23893539 32.7898961,5.91911318 C32.7577044,6.30796834 32.6926836,8.25128794 32.6926836,10.1308608 L32.6926836,14.1478621 C32.6926836,15.767667 32.7248753,18.0679683 32.7898961,19.1044905 C32.8871085,20.5948894 33.1462356,22.0852884 33.9236166,23.1218105 C35.0251455,24.6118907 36.7743325,25.1304705 38.3294134,25.1304705 C39.8201109,25.1304705 41.634,24.5471878 42.6708268,23.5750499 C43.9017598,22.3441002 44.549418,20.4654835 44.549418,18.1004792 L44.549418,12.268608 C44.549418,9.67698395 44.2899722,6.8262294 44.1933972,6.08102992 C44.0961847,5.23893539 43.5772932,4.65565265 42.8652517,4.65565265 L41.6990208,4.65565265 C41.5045958,4.65565265 41.4398938,4.55843886 41.4398938,4.42903296 L41.4398938,3.61913053 C41.4398938,3.42502168 41.5045958,3.36 41.6990208,3.36 C42.0228499,3.36 43.5129099,3.45721379 45.6515843,3.45721379 C47.6598984,3.45721379 48.6967252,3.36 48.9552147,3.36 C49.2468521,3.36 49.28,3.45721379 49.28,3.61913053 L49.28,4.36433001 C49.28,4.55843886 49.2468521,4.65565265 49.0849376,4.65565265 L47.9190254,4.65565265 C46.7527944,4.65565265 46.6230716,5.56276886 46.5586882,5.91911318 C46.49303,6.30796834 46.49303,10.8435494 46.49303,11.264278 C46.49303,11.7181548 46.4286466,17.3552797 46.2992425,18.6512511 C46.1044988,21.3075781 45.3274365,23.3165568 43.5772932,24.8716587 C42.2172748,26.1022897 40.1439399,26.88 37.6817552,26.88 C36.1263556,26.88 34.2477644,26.6208695 33.0165127,26.1022897 C31.1376028,25.3248981 29.8416489,23.8344991 29.193672,21.7611362 C28.7407575,20.3357589 28.6110347,18.197693 28.6110347,13.9537533 L28.6110347,6.2754575" id="Fill-3"></path>
                <path d="M49.6418597,19.294916 C49.7711579,19.294916 49.8351733,19.3582531 49.8351733,19.549832 C49.8998224,20.5698096 50.1571513,21.7804255 51.059704,23.1829339 C52.0259551,24.7127436 53.7008114,25.4774916 55.3113355,25.4774916 C57.0505241,25.4774916 59.498318,24.3941769 59.498318,21.7484434 C59.498318,18.8167525 58.1457566,17.8604255 54.7310778,16.586159 C53.7008114,16.2033147 51.5743618,15.3112654 50.0284869,13.9090705 C48.9338882,12.8890929 48.4179627,11.2956327 48.4179627,9.35131019 C48.4179627,7.5668981 49.1259342,6.10105263 50.672443,4.88949608 C51.960989,3.80649496 53.3781995,3.36 55.2470033,3.36 C57.3728191,3.36 58.6613651,3.86983203 59.3053213,4.12474804 C59.6276162,4.25236282 59.8209298,4.18902576 59.981602,4.02942889 L60.4008706,3.61460246 C60.5292182,3.48730123 60.6581995,3.42365062 60.8508793,3.42365062 C61.0448267,3.42365062 61.109159,3.61460246 61.109159,3.93316909 C61.109159,4.44362822 61.6247675,8.90512878 61.6247675,9.22369541 C61.6247675,9.35131019 61.5601184,9.41464726 61.4314539,9.44725644 L60.9158454,9.60653975 C60.7871809,9.63820829 60.6581995,9.60653975 60.5938673,9.41464726 C60.2715723,8.52322508 59.7562807,7.24801792 58.5963991,6.03677492 C57.7591294,5.14441209 56.7291799,4.69823068 55.2470033,4.69823068 C52.6699112,4.69823068 51.639011,6.73818589 51.639011,7.91744681 C51.639011,9.00076148 51.7676754,9.95677492 52.5409298,10.7854871 C53.3781995,11.6138858 55.1823542,12.3789474 56.4705833,12.7614782 C58.3390702,13.3352744 59.8852621,13.9727212 61.109159,15.2473012 C62.1400592,16.331243 62.72,17.6694737 62.72,19.804748 C62.72,23.6924524 60.1429079,26.88 55.8906425,26.88 C53.2495351,26.88 51.7036601,26.3065174 50.415431,25.3501904 C50.0284869,25.0952744 49.8351733,24.9676596 49.6418597,24.9676596 C49.4491799,24.9676596 49.3198816,25.2228891 49.1259342,25.5414558 C48.9338882,25.8603359 48.8052238,25.9239866 48.5466272,25.9239866 C48.2892983,25.9239866 48.16,25.7327212 48.16,25.4144681 C48.224966,25.0316237 48.6756086,19.8683987 48.7402577,19.4858679 C48.7722654,19.294916 48.8052238,19.2309518 48.9338882,19.2309518 L49.6418597,19.294916" id="Fill-4"></path>
                <path d="M85.0232516,21.2072564 C85.1186928,21.3028891 85.1506108,21.3982083 85.0867748,21.5255095 C83.1782638,24.2665622 80.1247714,26.88 75.6086817,26.88 C71.5372542,26.88 69.2476043,25.6690705 67.2752572,23.8840314 C64.9217712,21.7804255 63.84,18.0839866 63.84,15.2792833 C63.84,12.156327 64.858248,9.16004479 67.0846877,6.73818589 C68.8020034,4.88949608 71.5372542,3.36 75.3545891,3.36 C78.2800964,3.36 80.6345212,4.25267637 81.7785639,4.88949608 C82.2244777,5.14441209 82.3512111,5.14441209 82.4147342,4.88949608 L82.6694527,4.06109742 C82.7329758,3.86983203 82.7968119,3.86983203 83.1782638,3.86983203 C83.5600286,3.86983203 83.6235517,3.93316909 83.6235517,4.37966405 C83.6235517,4.95346025 84.259722,10.0527212 84.3870813,11.0084211 C84.4189993,11.2 84.3870813,11.2956327 84.259722,11.3273012 L83.6554698,11.5182531 C83.4965054,11.5822172 83.4013771,11.4546025 83.3059359,11.2 C82.9241712,10.0527212 82.1606416,8.45957447 80.8244648,7.05706607 C79.4250779,5.71820829 77.7709724,4.69823068 75.2904401,4.69823068 C70.2017033,4.69823068 68.1026228,9.28765957 68.1026228,13.8767749 C68.1026228,15.8530795 68.6746442,19.6134826 71.0281302,22.1632699 C73.1275236,24.3941769 74.9721985,24.6487794 76.4992576,24.6487794 C79.9983509,24.6487794 82.7652068,22.8963494 84.1010706,20.9520269 C84.259722,20.7287794 84.3870813,20.6334602 84.4825225,20.7287794 L85.0232516,21.2072564" id="Fill-5"></path>
                <path d="M21.257792,6.11036229 L21.222134,5.45612535 C21.1792818,4.85105995 21.1085914,4.21693864 21.0072477,3.56812973 L20.9356189,3.1290981 C20.8949563,2.89473504 20.8499146,2.66069128 20.7986171,2.42377385 L20.7570162,2.22612979 L20.5668402,2.28296443 C20.5599588,2.2855188 20.253738,2.37396371 19.7366972,2.46177004 L18.4833501,2.60736889 C18.234057,2.62397227 17.9700628,2.63482832 17.6916802,2.63482832 C16.9610042,2.6361055 16.2469061,2.56809552 15.5590822,2.44005793 L15.1189876,2.3528902 C15.110855,2.35033583 15.1027225,2.34905865 15.0958411,2.34778146 C15.0867702,2.34554639 14.7330055,2.26987331 14.1959461,2.08276601 L13.6116555,1.86053619 C13.027365,1.62266087 12.3348493,1.27846008 11.647651,0.809414663 L11.0736825,0.382196983 C10.9657701,0.295667841 10.859109,0.20690363 10.7546373,0.112072799 L10.627332,0 L10.504093,0.118458714 C10.5009651,0.121970967 10.3977446,0.219994754 10.2019385,0.377407547 L9.61577117,0.80813748 C9.13626505,1.13254194 8.46971088,1.52208272 7.63956786,1.86500633 L7.0549645,2.08787474 C6.77282848,2.18557924 6.47630415,2.27913288 6.16351476,2.36087259 C6.15569503,2.36214977 6.14724972,2.36342696 6.14036835,2.36598132 L5.63239839,2.4793313 C5.03528347,2.5917234 4.3921885,2.65207029 3.71124601,2.65207029 C3.37781253,2.65207029 3.06001852,2.63929846 2.76099187,2.61662847 L1.50576808,2.46879454 C1.00937133,2.38705484 0.702524951,2.30914668 0.696581953,2.3078695 L0.510159481,2.25933655 L0.468558494,2.45091398 C0.427583085,2.64025635 0.39442741,2.82864083 0.360020578,3.01574812 L0.264619817,3.58824536 C0.16702953,4.22300526 0.0985286552,4.84435474 0.0578660356,5.4372869 L0.021269678,6.09535539 C0.0084453133,6.415609 0.00125115753,6.72564515 0,7.02450595 L0.00437905134,7.66341669 C0.0397242515,9.45658148 0.249293137,10.6932138 0.265558185,10.7925148 C0.284951127,10.9451382 0.656857701,13.833168 2.06253318,17.3147686 C3.38500669,20.5827603 5.91422163,25.0576899 10.468435,27.878029 L10.6664307,28 L10.8628624,27.878029 C15.4111328,25.045876 17.928149,20.5639219 19.2403004,17.2924179 C20.6387818,13.8069857 21.0041198,10.9170401 21.0210104,10.7653747 C21.0388394,10.6657544 21.2415269,9.44349036 21.2753082,7.66788683 L21.28,7.03376552 C21.2778105,6.7365012 21.2718675,6.42870012 21.257792,6.11036229 L21.257792,6.11036229 Z M18.9481552,10.1108184 L18.942525,10.1108184 C18.5390266,10.1120956 17.8724725,10.1868108 17.4561498,10.3097397 L17.1374174,10.4058477 C16.8696697,10.4872681 16.5887849,10.5712429 16.3104023,10.6469159 L16.3582591,10.830511 L16.3104023,10.6469159 C15.6579237,10.8269987 15.1918675,10.9109735 14.8427945,10.9119314 L14.834662,10.9119314 C14.2312913,10.9119314 13.2938615,10.8327461 12.2400741,10.4562964 C11.9548102,10.3544411 11.6113674,10.2410911 11.240712,10.1772319 C10.8641136,10.1120956 10.5366231,10.1037939 10.1894269,10.151369 C9.75308571,10.2091615 9.35208972,10.340392 9.01709229,10.4610858 C7.95892582,10.8410477 7.01930651,10.9215103 6.41718695,10.9227875 L6.41374627,10.9227875 C5.89670542,10.9227875 5.17791542,10.7324872 4.5423274,10.5463378 L4.49165552,10.7299328 L4.54201461,10.5463378 C4.35465377,10.4930154 4.17010804,10.4374579 3.99306925,10.3844549 L3.80132935,10.3273009 C3.42379257,10.2149088 2.79790102,10.1322112 2.34029015,10.1322112 L2.33247042,10.1322112 C1.71127071,10.1331691 1.15732071,10.2800452 0.60712419,10.5722007 C0.59179751,10.4767313 0.572404568,10.338157 0.549258154,10.1619057 C1.09413726,9.85761691 1.70626608,9.69158314 2.33247042,9.69062525 L2.33872621,9.69062525 C2.76161745,9.69062525 3.35716843,9.76981059 3.69748328,9.87198522 L4.43848133,10.0907028 L4.49040436,9.90966212 L4.43941969,10.0907028 C5.13568886,10.2931363 5.85666838,10.4812015 6.41374627,10.4812015 L6.41718695,10.4812015 C7.04933429,10.4799243 8.03430806,10.3949916 9.13970573,9.99714915 C9.45718695,9.88252198 9.83534932,9.75927383 10.2329046,9.70722863 L10.5969915,9.67976919 C10.6054368,9.67976919 10.6120054,9.67976919 10.6198251,9.67976919 L11.181282,9.73085651 C11.5281654,9.7915227 11.8634757,9.90231832 12.1171479,9.99363689 C13.22192,10.3863706 14.2028275,10.4693875 14.834662,10.4693875 L14.8427945,10.4693875 C15.2231464,10.4693875 15.7039037,10.3844549 16.4058031,10.1925581 C16.6988867,10.1120956 16.9935343,10.0233314 17.2744192,9.93807944 L17.5606215,9.85250818 C17.8956189,9.75224932 18.5158802,9.66923244 18.942525,9.66923244 L18.9459656,9.66923244 C19.5737339,9.66923244 20.1889906,9.83271185 20.7360593,10.1382779 C20.7151024,10.3071853 20.6966478,10.4412895 20.6825723,10.535801 C20.1355037,10.2564173 19.5674781,10.1108184 18.9481552,10.1108184 L18.9481552,10.1108184 Z M0.374721679,7.69183401 L6.62738142,8.17237408 C6.48912851,8.52008712 6.39497891,8.89174735 6.34587097,9.28001095 C5.83977775,9.26021461 5.17197243,9.08715633 4.5717296,8.91345946 L3.83073156,8.69282611 C3.4553843,8.5817112 2.82761601,8.49773642 2.36937957,8.49773642 L2.3624982,8.49773642 C1.69907192,8.49773642 1.01562712,8.66696316 0.432900504,8.95209424 C0.405687828,8.57724106 0.38441815,8.15449352 0.374721679,7.69183401 L0.374721679,7.69183401 Z M10.6579854,8.48592248 L10.6573598,8.5143398 L10.6564214,8.48592248 C10.5116,8.48719966 10.3642762,8.49773642 10.2191419,8.51689416 C9.78342628,8.57340951 9.38086634,8.70464005 9.0464945,8.82533384 C8.13940529,9.15229266 7.31833316,9.25766025 6.72246939,9.28128813 C6.9930322,7.28696703 8.64205782,5.8028805 10.6385924,5.79936825 L10.6432843,5.79936825 C12.6141702,5.79936825 14.2850911,7.30388971 14.5619097,9.26947419 C13.968861,9.24456912 13.1615516,9.13920153 12.2701019,8.82086369 C12.0023542,8.72507498 11.6467126,8.60789345 11.2710526,8.54179923 L11.2682375,8.54978162 L11.2698014,8.54179923 C11.0564791,8.50476093 10.8553555,8.48592248 10.6579854,8.48592248 L10.6579854,8.48592248 Z M18.9459656,9.29054771 L18.9415866,9.29054771 C18.5358988,9.29054771 17.8690318,9.3655822 17.4552114,9.48946894 L17.1686964,9.57599808 C16.8918778,9.65869568 16.5994197,9.74745989 16.3094639,9.82696452 L16.3582591,10.0102403 L16.3094639,9.82696452 C15.8947052,9.9406338 15.2913345,10.0907028 14.8418562,10.0907028 L14.834662,10.0907028 C14.2312913,10.0907028 13.2947999,10.0115175 12.2400741,9.6347485 C11.9720136,9.54055626 11.6148081,9.42209754 11.2391481,9.35568403 C11.0261385,9.31928432 10.8262661,9.30140376 10.6263937,9.30140376 C10.4793827,9.30140376 10.3361251,9.31194052 10.1891141,9.33077897 C9.75527523,9.3879329 9.35302809,9.51884415 9.0167795,9.63985723 C7.96017697,10.0198191 7.01930651,10.1012396 6.41624859,10.1025167 L6.41374627,10.1025167 C5.90108447,10.1025167 5.18010495,9.91317437 4.54138903,9.72734426 L3.80070378,9.50703021 C3.4259821,9.3959153 2.79883939,9.31194052 2.33872621,9.31194052 L2.33121926,9.31194052 C1.6937545,9.3132177 1.07036526,9.47286557 0.504216483,9.76278608 C0.491079329,9.63730286 0.477942175,9.50256007 0.46511781,9.35568403 C1.02407244,9.05363028 1.70470213,8.87642115 2.36312378,8.87642115 L2.36875399,8.87642115 C2.79070686,8.87642115 3.38625785,8.9546486 3.72719827,9.05618464 L4.46944747,9.2761794 L4.52074493,9.09418084 L4.47007305,9.2761794 C5.16571664,9.47893218 5.88638337,9.66699737 6.44408684,9.66699737 L6.44784031,9.66699737 C7.07936207,9.66603948 8.06496142,9.57951034 9.16973351,9.18262575 C9.48565079,9.06799859 9.86287478,8.94506973 10.2626196,8.89270523 L10.6545447,8.86588439 L11.212561,8.91537523 C11.5603828,8.9769993 11.8947546,9.08811422 12.1471756,9.17815561 C13.2497582,9.57248583 14.2312913,9.65518342 14.8637514,9.65518342 L14.8715711,9.65518342 C15.253487,9.65518342 15.7354954,9.56993147 16.4345797,9.37835403 C16.7257866,9.29916869 17.0188703,9.21008518 17.2975656,9.12611041 L17.590962,9.03862338 C17.928149,8.93804523 18.5480975,8.85534763 18.9728655,8.85407045 L18.9759934,8.85407045 C19.6106431,8.85407045 20.2750077,9.02297789 20.8208252,9.31194052 C20.8080008,9.46711824 20.7942381,9.60888554 20.7814137,9.74043538 C20.2130754,9.45019557 19.5849943,9.29054771 18.9459656,9.29054771 L18.9459656,9.29054771 Z M18.9716144,8.47538572 C18.5684289,8.47634361 17.9015619,8.55105881 17.4877415,8.67398766 L17.1930939,8.76275187 C16.9169009,8.84544947 16.6272579,8.93453297 16.3385533,9.01244113 C15.9441259,9.12036308 15.3807923,9.25893743 14.9388209,9.27202855 C14.8890874,8.88951228 14.7927482,8.52264149 14.6538697,8.17684422 L20.9052783,7.69726204 C20.8958946,8.14012521 20.8774401,8.54722726 20.8517913,8.91090509 C20.2803251,8.63950372 19.6184628,8.48815755 18.9716144,8.47538572 L18.9716144,8.47538572 Z M20.9099702,7.08357566 L14.5562795,7.95110214 C14.5065459,7.84701173 14.453059,7.74387921 14.3964441,7.64425895 L20.8893261,6.19337918 C20.9008993,6.49990307 20.9090318,6.79940246 20.9099702,7.08357566 L20.9099702,7.08357566 Z M20.6572363,3.7341635 C20.7523243,4.36253749 20.8164461,4.97590458 20.8555448,5.56149294 L14.274769,7.44310264 C14.1602881,7.26333915 14.0336084,7.09315453 13.8953555,6.93191019 L20.6572363,3.7341635 Z M19.006334,2.94454517 C19.6972857,2.87366152 20.2143266,2.76254661 20.4764441,2.69836817 C20.5005289,2.81938125 20.5205474,2.93847856 20.5436938,3.05949164 L13.7470933,6.77194303 C13.6789052,6.69882431 13.607902,6.62666347 13.5325198,6.55929208 L19.006334,2.94454517 Z M15.5700298,2.82864083 C16.2550386,2.95156968 16.9647577,3.01447094 17.6916802,3.01319376 C17.779574,3.01319376 17.8618376,3.01063939 17.9462908,3.00840432 L13.3764379,6.42422998 C13.1915794,6.27032944 12.9945221,6.1320744 12.7868299,6.01106132 L15.5700298,2.82864083 Z M14.0079597,2.42153878 C14.399572,2.55851664 14.7073567,2.64281071 14.8750118,2.68431916 L12.5378496,5.87376415 C12.4196152,5.81341726 12.2979401,5.76041417 12.1725116,5.71156193 L14.0079597,2.42153878 Z M11.5929129,1.22705347 C12.2488322,1.66161495 12.8984957,1.98122997 13.4536969,2.20952642 L11.9175882,5.62056264 C11.6335755,5.53084055 11.3376767,5.46793929 11.034271,5.43920267 L11.5929129,1.22705347 Z M10.633275,0.507680203 C10.769964,0.626138916 10.9085297,0.735976646 11.0489721,0.842302122 L10.7999918,5.42866591 C10.7480687,5.42643084 10.6970841,5.42036423 10.6432843,5.42036423 L10.6376541,5.42036423 C10.5835415,5.42036423 10.5303673,5.42643084 10.4762548,5.42866591 L10.2279,0.835596912 C10.4068155,0.699576933 10.5447556,0.585907655 10.633275,0.507680203 L10.633275,0.507680203 Z M9.67050931,1.22705347 L10.2294639,5.44047986 C9.92011524,5.47049365 9.6207758,5.53531069 9.33332236,5.62758715 L7.79471139,2.2108036 C8.56448606,1.89374294 9.19381829,1.53964399 9.67050931,1.22705347 L9.67050931,1.22705347 Z M7.24263813,2.42377385 L9.07808622,5.71539347 C8.95422163,5.76360713 8.83254656,5.8182067 8.71431217,5.87855359 L6.37933944,2.69389803 C6.68180677,2.61088114 6.969573,2.52083975 7.24263813,2.42377385 L7.24263813,2.42377385 Z M3.71124601,3.03107432 C4.41533491,3.03107432 5.08032514,2.96945024 5.69964811,2.85226871 L8.46627019,6.01585075 C8.25670131,6.14005679 8.05901842,6.2811855 7.87353431,6.438279 L3.30555818,3.0250077 C3.43880646,3.02851995 3.57205474,3.0320322 3.71124601,3.03107432 L3.71124601,3.03107432 Z M0.791982714,2.71944169 C1.05316185,2.77755351 1.56863875,2.87940885 2.23550571,2.95156968 L7.71682683,6.57110602 C7.64269575,6.6397546 7.57450767,6.71191543 7.50663237,6.78503415 L0.725984155,3.08056515 C0.747879411,2.96019067 0.767585143,2.84045477 0.791982714,2.71944169 L0.791982714,2.71944169 Z M0.614631135,3.75300195 L7.36400041,6.94468202 C7.23606955,7.09634748 7.11658401,7.25631464 7.00867167,7.42554138 L0.423204033,5.54105801 C0.461364338,4.96728359 0.522671057,4.36828481 0.614631135,3.75300195 L0.614631135,3.75300195 Z M0.390048359,6.17805298 L6.88824776,7.62989064 C6.83132009,7.73206527 6.7781459,7.83519779 6.72841239,7.94184256 L0.368465892,7.07495467 C0.370029838,6.78854641 0.377849573,6.48553476 0.390048359,6.17805298 L0.390048359,6.17805298 Z M18.8927914,17.1589523 C17.6000329,20.3768146 15.1271201,24.7808605 10.6654923,27.5558596 C6.1979216,24.7939516 3.71124601,20.3937372 2.41035497,17.1800258 C1.21393559,14.2188772 0.775717666,11.7041041 0.665303015,10.9662117 C1.19923449,10.6600071 1.7322276,10.5124924 2.33372158,10.510896 L2.33997736,10.510896 C2.76036629,10.510896 3.3552917,10.5904006 3.69810886,10.6906595 L3.88734643,10.7474941 C4.06720033,10.802413 4.25143328,10.8566932 4.44067085,10.9109735 C5.10034366,11.1051053 5.85072538,11.3011529 6.41374627,11.3011529 L6.41718695,11.3011529 C7.04933429,11.300195 8.0330569,11.2165395 9.14033131,10.8174199 C9.45624859,10.7050278 9.832847,10.5817796 10.2347814,10.52718 L10.5994938,10.5003592 C10.6063751,10.5003592 10.6135693,10.5003592 10.6198251,10.5003592 L11.1834716,10.5524044 C11.5259759,10.6114741 11.848149,10.7168417 12.1180862,10.8142269 C13.2209816,11.2079185 14.2028275,11.2906161 14.8362259,11.2906161 L14.8440457,11.2906161 C15.2253359,11.2896582 15.7217327,11.2021712 16.4067414,11.0137867 C16.6873135,10.9371558 16.9713263,10.8506266 17.2425147,10.7688869 L17.5606215,10.6730982 C17.8990596,10.5734779 18.5190081,10.490461 18.9437761,10.4895032 L18.9481552,10.4895032 C19.5474596,10.4895032 20.0970306,10.6386143 20.625019,10.929812 C20.5183579,11.6530168 20.0892108,14.1799231 18.8927914,17.1589523 L18.8927914,17.1589523 Z" id="Fill-6"></path>
                <path d="M16.3011786,15.0525854 C16.5990175,14.9006732 16.9160243,14.6063242 16.7578895,14.1563952 C16.754572,14.1508933 16.379693,13.5502747 16.5636307,13.0710025 L16.6255576,12.9093092 L16.4213462,12.9282601 C16.3903828,12.9307053 16.1139234,12.9704409 15.7958108,13.2663182 C15.4813843,12.843287 14.9734362,12.5825605 14.9413669,12.5678889 L14.4359992,12.32 L14.7644329,12.7240803 C14.8230423,12.7971326 14.977491,13.038297 14.9118779,13.1914319 C14.8761225,13.2760992 14.8311518,13.3408988 14.7791774,13.4008078 C14.4433714,13.1186852 13.9306314,13.0028407 13.9092519,12.9988671 L13.6453253,12.940792 L13.7533288,13.1480284 C13.9007738,13.429234 13.7842922,13.6248554 13.6501173,13.8519595 C13.5509605,14.0203772 13.4389023,14.2095797 13.44,14.4431027 C13.44,14.7457044 13.6202596,14.9404088 13.7953506,15.0495288 C13.6681793,15.1430602 13.5878217,15.2793838 13.5878217,15.431296 C13.5889276,15.6247777 13.7216281,15.7925841 13.9144124,15.8796968 C13.9427956,16.138895 14.0806567,16.3033392 14.2572221,16.3828104 L14.4433714,19.7273237 C14.201193,19.776229 14.0183612,19.9483146 14.0183612,20.1634981 C14.0183612,20.3936588 14.2273645,20.5758312 14.4923969,20.6097592 L14.5701741,22.0053951 C14.5701741,22.2233295 14.7836008,22.4 15.0456843,22.4 C15.308505,22.4 15.5211944,22.2233295 15.5211944,22.0102856 L15.5993403,20.6122045 C15.8765369,20.5871405 16.0965986,20.3982437 16.0951242,20.1625811 C16.0951242,19.9406732 15.9008654,19.763697 15.6479972,19.7215162 L15.8337779,16.3794481 C15.8901756,16.3568294 15.9447302,16.3329881 15.9882265,16.2966147 C16.1098687,16.1957475 16.1740072,16.0484202 16.1876459,15.8638025 C16.2329852,15.8411838 16.2805363,15.8219273 16.318872,15.7901389 C16.4353535,15.6938565 16.5005979,15.5633404 16.4994921,15.4279338 C16.4994921,15.2793838 16.4231893,15.1467281 16.3011786,15.0525854 L16.3011786,15.0525854 Z M15.9521025,13.4518528 C16.0645293,13.3372309 16.1699525,13.2647899 16.2558392,13.2195524 C16.189489,13.7269452 16.507233,14.2321984 16.5131308,14.2392286 C16.6646305,14.6732634 16.1467299,14.883862 16.0199272,14.9281824 C15.9745879,14.918707 15.9281427,14.9132052 15.8776428,14.9132052 L15.6089242,14.9132052 C15.8050261,14.7026066 16.0483104,14.3526278 16.0446242,13.918593 C16.0446242,13.7348924 15.9521025,13.4518528 15.9521025,13.4518528 L15.9521025,13.4518528 Z M15.1614286,13.2647899 C15.1990271,13.1776772 15.2001329,13.0835345 15.1809651,12.9951992 C15.454107,13.2012129 15.7762743,13.527656 15.7806977,13.9198156 C15.7847524,14.407035 15.4106107,14.7820777 15.2602168,14.9132052 L15.1647461,14.9132052 C15.0471587,14.7796325 14.818619,14.4761138 15.0607974,14.1383613 C15.1090856,14.0705052 15.3284101,13.7896052 15.3556874,13.736115 C15.3929173,13.6703984 15.3881253,13.6095724 15.3881253,13.6095724 C15.3516327,13.6590891 15.2874941,13.7180811 15.2874941,13.7180811 C15.2244614,13.7749336 15.008823,13.9604682 14.9402611,14.02863 C14.5841814,14.3877785 14.8230423,14.7796325 14.9174071,14.9132052 L14.6081412,14.9144278 C14.0773392,14.322979 14.6453711,13.8583783 14.6789148,13.8302577 C14.7194622,13.7926618 14.7574293,13.7575111 14.7942905,13.7248056 C14.9428414,13.5909273 15.0714872,13.4756941 15.1614286,13.2647899 L15.1614286,13.2647899 Z M13.7039347,14.4431027 C13.7039347,14.2609303 13.7942448,14.1087125 13.888241,13.9491588 C14.0017736,13.7575111 14.1271019,13.5456899 14.0754961,13.2806841 C14.2380542,13.3360082 14.4496378,13.4325963 14.6070354,13.5695312 C14.6044551,13.5719765 14.6015062,13.5741161 14.5989259,13.5753387 C14.5605902,13.6104894 14.52078,13.6465571 14.4879735,13.6780399 C14.4794954,13.6841531 13.8078834,14.2279192 14.2915031,14.9144278 L14.2067222,14.9144278 C14.1591712,14.9156504 14.1123574,14.9211523 14.0659122,14.9290994 C13.9918211,14.9018958 13.7050405,14.7771872 13.7039347,14.4431027 L13.7039347,14.4431027 Z M15.0456843,22.1805373 C14.9295713,22.1805373 14.8337321,22.1022888 14.8337321,22.0014216 L14.7589037,20.6222912 L15.3328334,20.6222912 L15.256162,22.0047838 C15.256162,22.1022888 15.1614286,22.1805373 15.0456843,22.1805373 L15.0456843,22.1805373 Z M15.830829,20.1625811 C15.830829,20.2940142 15.701446,20.4013003 15.5429426,20.4013003 L14.57128,20.4025229 L14.5701741,20.5125599 L14.5701741,20.4025229 C14.4113021,20.4025229 14.2844994,20.2952368 14.2844994,20.1634981 C14.2844994,20.032065 14.4135138,19.9256959 14.5701741,19.9256959 L15.1197754,19.9244733 L15.5414681,19.9232507 C15.6999715,19.9232507 15.830829,20.031148 15.830829,20.1625811 L15.830829,20.1625811 Z M15.3833334,19.7034823 L14.7069294,19.704705 L14.5259406,16.4414968 L15.544417,16.4405798 C15.5525265,16.4405798 15.5576871,16.4375232 15.5665338,16.4363006 L15.3833334,19.7034823 Z M15.80134,16.1413403 C15.7383072,16.1936079 15.6509461,16.2195888 15.544417,16.2195888 L14.5259406,16.2208115 C14.3556416,16.2208115 14.2365798,16.116582 14.1916091,15.942968 C14.1986127,15.942968 14.2037733,15.9441907 14.2093025,15.9441907 L15.8791172,15.9420511 C15.8887011,15.9420511 15.8968106,15.9377718 15.9067632,15.9377718 C15.8872267,16.0224392 15.8570005,16.0951859 15.80134,16.1413403 L15.80134,16.1413403 Z M16.130511,15.6351701 C16.0634235,15.6917169 15.9745879,15.7222827 15.8791172,15.7222827 L14.2093025,15.724728 C14.0124634,15.724728 13.8543286,15.5920723 13.8532228,15.4297677 C13.8532228,15.2677688 14.0124634,15.1354188 14.2081966,15.1354188 L14.4794954,15.1341961 C14.4794954,15.1354188 14.4813385,15.1366414 14.4813385,15.137864 L14.4853932,15.1341961 L14.843316,15.1341961 L15.8802231,15.1329735 C16.0748505,15.1329735 16.2340911,15.2656292 16.2340911,15.4279338 C16.2340911,15.5058766 16.197967,15.5795403 16.130511,15.6351701 L16.130511,15.6351701 Z" id="Fill-7"></path>
                <path d="M7.34149051,15.0507197 C7.63961618,14.8987753 7.95506188,14.6034467 7.79844457,14.1543393 C7.79365392,14.1488363 7.41814087,13.5480901 7.60202802,13.0687161 L7.66430644,12.9057657 L7.46015116,12.9259434 C7.42919621,12.9283892 7.15502378,12.9666046 6.83589296,13.2625447 C6.52081577,12.8400352 6.01227013,12.5801705 5.98131518,12.5658015 L5.48087678,12.32 L5.80516676,12.7208031 C5.86670815,12.7990683 6.01669226,13.0360038 5.95072874,13.1891711 C5.91461462,13.2738564 5.87076178,13.3386697 5.81917019,13.3985915 C5.48382487,13.116409 4.97159412,13.0005399 4.94874642,12.9965655 L4.68526081,12.9384781 L4.79397166,13.1457584 C4.9417447,13.4258009 4.82529512,13.6229923 4.69078848,13.8498389 C4.59202745,14.017681 4.48,14.2075351 4.48,14.4408019 C4.48036851,14.7663971 4.67678505,14.9507482 4.83671897,15.0488854 C4.82898023,15.0553056 4.81755638,15.0577514 4.80981764,15.0641715 C4.69299955,15.1616972 4.62887858,15.2913239 4.6296156,15.4279822 C4.6296156,15.6221164 4.76154266,15.7896527 4.9546426,15.8770896 C4.98191244,16.1115793 5.10831183,16.2928731 5.29772665,16.3800042 L5.48382487,19.7255333 C5.24171293,19.7744491 5.05929982,19.9474884 5.05929982,20.1627175 C5.05929982,20.3929271 5.26714021,20.574221 5.53173135,20.6069334 L5.60948724,22.0043942 C5.60948724,22.2220691 5.82359233,22.4 6.0859724,22.4 C6.34798395,22.4 6.56172053,22.2220691 6.56172053,22.0086743 L6.63947642,20.6115192 C6.7655073,20.6002075 6.8826939,20.5616863 6.97297918,20.4855613 C7.07837342,20.3984301 7.13549268,20.2831725 7.13401863,20.1618004 C7.13401863,19.9410682 6.94018167,19.7640545 6.68738289,19.7206418 L6.87237558,16.3821443 C6.93096888,16.3598265 6.98771963,16.3347572 7.03304652,16.297459 C7.15060164,16.1999333 7.21324857,16.0537976 7.22762051,15.8691408 C7.4126132,15.7795639 7.54011812,15.6150848 7.54011812,15.4249249 C7.54011812,15.2775663 7.46162521,15.1448825 7.34149051,15.0507197 L7.34149051,15.0507197 Z M6.9899307,13.4496473 C7.10343219,13.3350011 7.21066899,13.2625447 7.29542659,13.2172976 C7.22909455,13.7251039 7.54564579,14.2301586 7.55227899,14.2359674 C7.70373715,14.6713172 7.18597873,14.8819605 7.06031636,14.9250675 C7.01388393,14.916813 6.96671448,14.9113099 6.91807099,14.9113099 L6.64905771,14.9113099 C6.84510574,14.6994438 7.09016578,14.3506136 7.08463811,13.9167923 C7.08353258,13.7315241 6.9899307,13.4496473 6.9899307,13.4496473 L6.9899307,13.4496473 Z M6.20131644,13.2625447 C6.23853609,13.1744964 6.23853609,13.0800279 6.22011052,12.990451 C6.49354593,13.1971199 6.81709888,13.5230208 6.82041548,13.9177095 C6.82520613,14.4050323 6.45116713,14.7801547 6.29934046,14.9113099 L6.20573858,14.9113099 C6.08818346,14.7777089 5.85933792,14.4741257 6.10144987,14.1363016 C6.14972486,14.0672082 6.36935761,13.7871657 6.39773298,13.732747 C6.43126752,13.6670165 6.4275824,13.6074004 6.4275824,13.6074004 C6.39109978,13.6569276 6.32808434,13.7147093 6.32808434,13.7147093 C6.26396337,13.7727967 6.04948977,13.9571478 5.98242071,14.026547 C5.62385918,14.3857717 5.86523411,14.7777089 5.95662492,14.9113099 L5.64781242,14.9125328 C5.11605056,14.3209584 5.68355802,13.8550362 5.71893511,13.8281326 C5.75726028,13.7905286 5.79632249,13.7565934 5.83133106,13.7251039 C5.98131518,13.5899742 6.11066265,13.4744108 6.20131644,13.2625447 L6.20131644,13.2625447 Z M4.74495965,14.4408019 C4.74495965,14.2588966 4.8345079,14.1069522 4.92958383,13.9470589 C5.04308532,13.7553705 5.16874768,13.54381 5.11605056,13.2772194 C5.27893257,13.3337782 5.49230064,13.4294695 5.64670688,13.5661278 C5.64339028,13.5685736 5.64117921,13.5722423 5.63712559,13.5756052 C5.60027446,13.6095405 5.56010672,13.644393 5.52767772,13.6758824 C5.51957047,13.6819969 4.8474058,14.2246556 5.33052416,14.9125328 L5.24760911,14.9125328 C5.20375626,14.9125328 5.16395704,14.9262904 5.12194674,14.9342392 C5.09209733,14.9238446 4.74569667,14.8091984 4.74495965,14.4408019 L4.74495965,14.4408019 Z M6.0859724,22.1789621 C5.96952281,22.1789621 5.87334136,22.100697 5.87334136,21.9998083 L5.79742802,20.6216081 L6.37304272,20.6203852 L6.29602386,22.0043942 C6.29602386,22.100697 6.20205347,22.1789621 6.0859724,22.1789621 L6.0859724,22.1789621 Z M6.869796,20.1618004 C6.869796,20.2250851 6.8403151,20.2853125 6.78577542,20.3305596 C6.73160425,20.3755009 6.65900752,20.4008759 6.58198865,20.4008759 L5.61243533,20.4008759 L5.61096129,20.5106306 L5.61096129,20.4008759 C5.45286992,20.4008759 5.32352244,20.2944842 5.32352244,20.1627175 C5.32352244,20.0315623 5.45286992,19.923642 5.61096129,19.923642 L6.16004317,19.923642 L6.58051461,19.9224191 C6.74081704,19.9224191 6.869796,20.0306451 6.869796,20.1618004 L6.869796,20.1618004 Z M6.42389729,19.7026041 L5.74767899,19.703827 L5.5660029,16.4393145 C5.56673992,16.4393145 5.56747695,16.4393145 5.56784546,16.4393145 L6.58419972,16.4377859 C6.59156995,16.4377859 6.59709762,16.4359516 6.60446784,16.4359516 L6.42389729,19.7026041 Z M6.84510574,16.1421516 C6.78430137,16.1919845 6.69696419,16.2179709 6.5834627,16.2179709 L5.56747695,16.2191938 C5.39943578,16.2191938 5.27893257,16.1128022 5.23250014,15.9403743 C5.23950186,15.9403743 5.24429251,15.9425143 5.2505572,15.9425143 L6.91807099,15.9403743 C6.92838931,15.9403743 6.93760209,15.9382342 6.94681487,15.9382342 C6.92838931,16.0232253 6.8989084,16.0965988 6.84510574,16.1421516 L6.84510574,16.1421516 Z M6.91807099,15.7193364 L5.2505572,15.7217822 C5.05340364,15.7217822 4.89457525,15.5903212 4.89457525,15.4279822 C4.89457525,15.3487999 4.93068936,15.2751206 4.99775842,15.2194789 C5.06482749,15.1632259 5.15400723,15.1323478 5.24834613,15.1323478 L5.51957047,15.1323478 C5.51957047,15.1323478 5.52104452,15.1335707 5.52104452,15.1347936 L5.52472963,15.1323478 L5.88402818,15.1323478 L6.40841981,15.1311249 L6.91954503,15.1311249 C7.11485604,15.1311249 7.27331591,15.2625859 7.27515847,15.4249249 C7.27515847,15.5878754 7.11485604,15.7193364 6.91807099,15.7193364 L6.91807099,15.7193364 Z" id="Fill-8"></path>
                <path d="M11.9212199,14.9933264 C12.1336147,14.8080203 12.4413294,14.4098364 12.2701541,13.7477996 C12.2681504,13.741067 12.030566,13.0803127 12.2378083,12.3541561 L12.2853252,12.1832769 L12.1261723,12.2044364 C12.1144362,12.2057188 11.8382085,12.2518851 11.5138915,12.6359626 C11.201883,11.9037146 10.5303492,11.451029 10.4937097,11.4260222 L10.1527904,11.2 L10.3531628,11.5837569 C10.3551665,11.5876041 10.5767211,12.0191302 10.4836911,12.315043 C10.4421854,12.4442444 10.3915198,12.5445919 10.3334118,12.6359626 C9.97818016,12.2124514 9.43746093,12.0665789 9.41427498,12.0604875 L9.21476132,12.0085505 L9.29691401,12.2188634 C9.46494057,12.6503895 9.33441227,12.9456611 9.18499171,13.2896638 C9.0742144,13.5426163 8.95942964,13.8048662 8.96,14.1366861 C8.96057463,14.5945014 9.1781218,14.8795138 9.37076555,15.0234627 C9.21991376,15.1536259 9.12115879,15.3559238 9.12115879,15.5838696 C9.12201753,15.8621495 9.26771689,16.0997133 9.47610418,16.2164113 C9.51045373,16.4799436 9.6518594,16.7498879 9.85022807,16.8781275 L9.84335816,16.8794099 L10.0506005,21.9105688 C9.78868512,21.963147 9.58859897,22.2186643 9.58859897,22.5264393 C9.58917146,22.8534502 9.81530602,23.1195473 10.1004073,23.1467982 L10.1868537,25.2274852 C10.1868537,25.3691899 10.2363743,25.5032003 10.3253969,25.6045095 C10.4158507,25.7042158 10.5346429,25.76 10.6605913,25.76 L10.6628813,25.76 C10.7896884,25.76 10.9090531,25.7042158 10.9986482,25.6032271 C11.0882432,25.5025591 11.1383363,25.3679075 11.1374776,25.2313324 L11.2230652,23.149363 C11.5213339,23.1362184 11.7612082,22.8617858 11.7612082,22.5241951 C11.7603495,22.2068022 11.5479548,21.9477582 11.2751621,21.906401 L11.4818319,16.8604946 L11.4809731,16.8604946 C11.6824905,16.722637 11.8299074,16.4565399 11.8605357,16.2045492 C11.9160675,16.1724893 11.9687368,16.1317732 12.0145362,16.0811186 C12.1341872,15.946467 12.20031,15.768214 12.1991651,15.5793813 C12.1991651,15.3360467 12.0889602,15.1206042 11.9212199,14.9933264 L11.9212199,14.9933264 Z M11.9893465,12.5025934 C11.8553833,13.2181702 12.070068,13.807431 12.0760792,13.8241022 C12.2461094,14.48133 11.8267586,14.8044937 11.6973753,14.886567 C11.6561559,14.876949 11.6115014,14.8711782 11.566847,14.8711782 L11.1543661,14.8724606 C11.3696233,14.5813568 11.6770518,14.0475596 11.6718994,13.3678899 C11.6707544,13.1931635 11.642416,13.0290168 11.5974754,12.8735264 C11.7483272,12.6750756 11.8883016,12.5631866 11.9893465,12.5025934 L11.9893465,12.5025934 Z M10.6771936,12.3923074 C10.7332978,12.2162986 10.7129744,12.0204126 10.6723274,11.8524188 C10.9906333,12.1425608 11.4629396,12.6869378 11.4660883,13.3691723 C11.472672,14.1177708 11.0372914,14.6893987 10.8781385,14.8724606 L10.8263279,14.8724606 C10.741599,14.7285117 10.6491414,14.4980011 10.6491414,14.2341482 C10.6485689,13.7279225 10.8689786,13.4332921 10.8689786,13.4332921 C10.8689786,13.4332921 10.5901747,13.6445668 10.5420853,14.110397 C10.5191856,14.3341751 10.5626951,14.5694947 10.6926509,14.8734224 L10.4281593,14.8734224 C10.3274006,14.7073522 10.0551804,14.227095 10.3402817,13.6888094 C10.3932373,13.5887826 10.6783386,13.1777747 10.7098257,13.0979456 C10.7464652,13.0027277 10.7433165,12.9139218 10.7433165,12.9139218 C10.703242,12.9876596 10.6342566,13.0729389 10.6342566,13.0729389 C10.5655575,13.157577 10.3319806,13.4297655 10.2575565,13.5281894 C9.83477077,14.1036644 10.1831325,14.7355649 10.2555528,14.8734224 L10.0952549,14.8734224 C9.47467295,13.9658069 10.1258832,13.2463829 10.1619503,13.2075904 C10.203456,13.1540504 10.2438167,13.1053194 10.2821737,13.0575501 C10.4421854,12.8639084 10.5801561,12.6965558 10.6771936,12.3923074 L10.6771936,12.3923074 Z M9.16552635,14.1354037 C9.16524072,13.8587269 9.26456818,13.6314222 9.36962056,13.3903318 C9.50444256,13.0828775 9.64298576,12.7654845 9.55310443,12.3506295 C9.73487082,12.4253291 10.008236,12.5705604 10.202311,12.813895 C10.1788388,12.8424283 10.1559391,12.8712822 10.1313219,12.9020597 C10.0918199,12.9495083 10.0494555,13.0004835 10.0133885,13.0479322 C10.0050873,13.0562678 9.26342319,13.8644976 9.84278567,14.8734224 L9.75319058,14.8734224 C9.69880379,14.8734224 9.6475657,14.8843228 9.59632762,14.8981086 C9.54966947,14.8795138 9.16695819,14.6951694 9.16552635,14.1354037 L9.16552635,14.1354037 Z M10.9313803,25.2265234 C10.9313803,25.3060319 10.9039006,25.3823345 10.8529488,25.4403629 C10.801997,25.4974295 10.7353016,25.528207 10.6628813,25.528207 L10.6617363,25.528207 C10.5896022,25.528207 10.5223343,25.4974295 10.4713825,25.4403629 C10.4198582,25.3845787 10.3923785,25.3082761 10.3923785,25.222035 L10.3065046,23.1528896 L11.0166817,23.1516072 L10.9313803,25.2265234 Z M11.5551109,22.5241951 C11.5551109,22.7428436 11.395958,22.9201348 11.201883,22.9201348 L10.1493554,22.9223789 C9.95413547,22.9223789 9.79526878,22.7441259 9.79469629,22.5264393 C9.79469629,22.3077908 9.95299048,22.1298584 10.1470655,22.1298584 L10.9416851,22.128576 L11.1998793,22.128576 C11.394813,22.128576 11.5539659,22.3055466 11.5551109,22.5241951 L11.5551109,22.5241951 Z M11.069351,21.8977448 L10.2555528,21.8987066 L10.0528904,16.9496211 C10.0680615,16.9521858 10.0823738,16.9566742 10.0984036,16.9566742 L10.0995486,16.9566742 L11.2050317,16.9553918 C11.2282177,16.9553918 11.2508311,16.9483387 11.2731583,16.9448121 L11.069351,21.8977448 Z M11.2050317,16.7248812 L10.0995486,16.725843 L10.0984036,16.725843 C9.92236213,16.725843 9.76206421,16.5120035 9.70080751,16.2863019 C9.71855478,16.2875843 9.7365883,16.2923933 9.75462181,16.2923933 L11.567992,16.2888667 C11.5903192,16.2888667 11.6126464,16.2840577 11.6346874,16.2818135 C11.569137,16.5027062 11.3899468,16.7248812 11.2050317,16.7248812 L11.2050317,16.7248812 Z M11.8694093,15.9179337 C11.7886879,16.0083426 11.6813455,16.058356 11.567992,16.058356 L9.75462181,16.0606002 C9.51961361,16.0606002 9.3284011,15.8467608 9.32725611,15.5838696 C9.32725611,15.3203373 9.51875487,15.1052155 9.75347683,15.1052155 C9.75347683,15.1052155 10.9611499,15.1052155 10.9642986,15.1029713 L11.567992,15.1029713 C11.802714,15.1029713 11.9936402,15.3155283 11.9936402,15.5793813 C11.9936402,15.7079414 11.9498445,15.8275248 11.8694093,15.9179337 L11.8694093,15.9179337 Z" id="Fill-9"></path>
            </g>
        </g>
    </g>
</svg>