<?xml version="1.0" encoding="UTF-8"?>
<svg width="32px" height="32px" viewBox="0 0 32 32" version="1.1" xmlns="http://www.w3.org/2000/svg" xmlns:xlink="http://www.w3.org/1999/xlink">
    <title>1CE1DA6C-CA08-4AA1-9B69-26882D9F73F9</title>
    <g id="SOC-&amp;-My-Course-Bin" stroke="none" stroke-width="1" fill="none" fill-rule="evenodd">
        <g id="My-Workspace---Sections-Hover" transform="translate(-48.000000, -582.000000)">
            <g id="Group-2" transform="translate(32.000000, 64.000000)">
                <g id="Group" transform="translate(16.000000, 295.000000)">
                    <g id="Group-18" transform="translate(0.000000, 79.000000)">
                        <g id="Group-16" transform="translate(0.000000, 144.000000)">
                            <g id="Group-19" transform="translate(4.000000, 4.000000)">
                                <circle id="Oval" stroke="#990000" stroke-width="2" cx="12" cy="12" r="11"></circle>
                                <path d="M11.688,17.128 C12.36,17.128 12.969,17.0346667 13.515,16.848 C14.061,16.6613333 14.53,16.379 14.922,16.001 C15.314,15.623 15.6173333,15.1446667 15.832,14.566 C16.0466667,13.9873333 16.154,13.306 16.154,12.522 C16.154,11.738 16.0466667,11.0613333 15.832,10.492 C15.6173333,9.92266667 15.3093333,9.45366667 14.908,9.085 C14.5066667,8.71633333 14.026,8.44333333 13.466,8.266 C12.906,8.08866667 12.276,8 11.576,8 L11.576,8 L9,8 L9,17.128 L11.688,17.128 Z M11.45,15.462 L11.058,15.462 L11.058,9.666 L11.45,9.666 C11.842,9.666 12.1966667,9.71266667 12.514,9.806 C12.8313333,9.89933333 13.102,10.0556667 13.326,10.275 C13.55,10.4943333 13.725,10.7883333 13.851,11.157 C13.977,11.5256667 14.04,11.9806667 14.04,12.522 C14.04,13.0726667 13.977,13.5346667 13.851,13.908 C13.725,14.2813333 13.55,14.5823333 13.326,14.811 C13.102,15.0396667 12.8313333,15.2053333 12.514,15.308 C12.1966667,15.4106667 11.842,15.462 11.45,15.462 L11.45,15.462 Z" id="D" fill="#990000" fill-rule="nonzero"></path>
                            </g>
                        </g>
                    </g>
                </g>
            </g>
        </g>
    </g>
</svg>